<svg width="176" height="40" viewBox="0 0 176 40" fill="none" xmlns="http://www.w3.org/2000/svg">
<mask id="evomap-nav-logo-mask" style="mask-type:luminance" maskUnits="userSpaceOnUse" x="0" y="0" width="176" height="40">
<path d="M176 0H0V40H176V0Z" fill="white"/>
</mask>
<g mask="url(#evomap-nav-logo-mask)">
<path d="M16.2879 15.984C14.3919 17.976 14.4239 21.008 16.4319 24.096C16.5039 24.208 16.5759 24.32 16.6559 24.424C16.6959 24.48 16.7359 24.544 16.7759 24.6C16.7919 24.616 16.7999 24.64 16.8159 24.656C16.8399 24.696 16.8639 24.736 16.8959 24.776C16.9119 24.8 16.9279 24.824 16.9439 24.856C16.9759 24.904 17.0079 24.952 17.0399 25.008C17.0399 25.008 17.0479 25.024 17.0559 25.032C17.0959 25.096 17.1359 25.152 17.1759 25.216C17.1839 25.232 17.1919 25.248 17.2079 25.264C17.2399 25.312 17.2639 25.36 17.2959 25.408C17.3119 25.432 17.3199 25.456 17.3359 25.472C17.3599 25.512 17.3759 25.544 17.3999 25.584C17.4159 25.608 17.4319 25.632 17.4399 25.664C17.4639 25.704 17.4879 25.744 17.5119 25.792C17.5359 25.832 17.5599 25.872 17.5839 25.92C17.6079 25.96 17.6239 26 17.6479 26.04C17.6559 26.064 17.6719 26.08 17.6799 26.104C17.7039 26.144 17.7279 26.192 17.7519 26.24C17.7679 26.264 17.7759 26.288 17.7919 26.312C17.8159 26.36 17.8399 26.4 17.8639 26.448C17.8719 26.464 17.8799 26.48 17.8879 26.504C17.9199 26.568 17.9519 26.632 17.9839 26.696C17.9919 26.72 18.0079 26.744 18.0159 26.76C18.0319 26.8 18.0559 26.84 18.0719 26.888C18.0879 26.912 18.0959 26.944 18.1119 26.968C18.1279 27.008 18.1519 27.048 18.1679 27.096C18.1759 27.12 18.1919 27.144 18.1999 27.168C18.2559 27.296 18.3119 27.424 18.3599 27.56C18.3679 27.584 18.3839 27.616 18.3919 27.64C18.4079 27.68 18.4239 27.728 18.4399 27.768C18.4479 27.792 18.4559 27.824 18.4719 27.848C18.4879 27.888 18.4959 27.92 18.5119 27.96C18.5279 27.992 18.5359 28.024 18.5519 28.064C18.5759 28.128 18.5919 28.184 18.6159 28.248C18.6239 28.272 18.6319 28.304 18.6399 28.328C18.6559 28.368 18.6639 28.408 18.6799 28.448C18.6879 28.48 18.6959 28.504 18.7119 28.536C18.7279 28.576 18.7359 28.616 18.7519 28.656C18.7599 28.688 18.7679 28.72 18.7759 28.752C18.7919 28.8 18.7999 28.84 18.8159 28.888C18.8159 28.904 18.8239 28.928 18.8319 28.952C18.8479 29.016 18.8639 29.088 18.8879 29.152C18.8879 29.176 18.9039 29.208 18.9039 29.232C18.9119 29.272 18.9279 29.32 18.9359 29.36C18.9359 29.392 18.9519 29.424 18.9599 29.456C18.9679 29.496 18.9759 29.536 18.9839 29.568C18.9839 29.6 18.9999 29.624 18.9999 29.656C19.0159 29.712 19.0239 29.768 19.0319 29.832C19.6239 32.864 19.0319 36.04 16.4559 38.616L13.3359 35.496C15.3279 33.504 15.3279 30.424 13.2799 27.272C13.2079 27.168 13.1359 27.056 13.0639 26.952C13.0239 26.896 12.9839 26.832 12.9439 26.776C12.9279 26.752 12.9119 26.736 12.9039 26.712C12.8799 26.68 12.8559 26.64 12.8319 26.608C12.8159 26.584 12.7919 26.552 12.7759 26.528C12.7519 26.488 12.7279 26.456 12.7039 26.416C12.6879 26.392 12.6719 26.368 12.6559 26.344C12.6159 26.288 12.5839 26.232 12.5519 26.168C12.5359 26.144 12.5199 26.12 12.5119 26.096C12.4879 26.064 12.4719 26.024 12.4479 25.992C12.4319 25.96 12.4159 25.936 12.3919 25.904C12.3679 25.872 12.3519 25.832 12.3279 25.8C12.3119 25.776 12.2959 25.752 12.2879 25.72C12.2559 25.672 12.2319 25.624 12.2079 25.568C12.1999 25.552 12.1839 25.528 12.1759 25.504C12.1519 25.456 12.1199 25.4 12.0959 25.352C12.0799 25.32 12.0639 25.296 12.0479 25.264C12.0319 25.232 12.0159 25.2 11.9919 25.16C11.9759 25.128 11.9599 25.096 11.9439 25.064L11.8959 24.968C11.8959 24.968 11.8639 24.904 11.8479 24.872C11.8159 24.816 11.7919 24.752 11.7679 24.696C11.7519 24.672 11.7439 24.64 11.7279 24.616C11.7119 24.576 11.6959 24.536 11.6719 24.504C11.6559 24.472 11.6399 24.44 11.6319 24.408C11.6159 24.376 11.5999 24.336 11.5839 24.304C11.5679 24.272 11.5599 24.248 11.5439 24.216C11.5279 24.176 11.5119 24.136 11.4879 24.088C11.4639 24.04 11.4479 23.984 11.4239 23.936C11.4079 23.904 11.3999 23.864 11.3839 23.832C11.3679 23.8 11.3599 23.76 11.3439 23.728C11.3359 23.696 11.3199 23.664 11.3119 23.632C11.2959 23.592 11.2879 23.56 11.2719 23.52C11.2639 23.488 11.2479 23.456 11.2399 23.424C11.2239 23.392 11.2159 23.36 11.1999 23.32C11.1839 23.288 11.1759 23.248 11.1599 23.216C11.1359 23.144 11.1119 23.08 11.0959 23.008C11.0959 22.984 11.0799 22.968 11.0719 22.944C11.0559 22.904 11.0479 22.864 11.0319 22.824C11.0239 22.792 11.0079 22.752 10.9999 22.72C10.9919 22.688 10.9839 22.656 10.9679 22.616C10.9679 22.592 10.9519 22.56 10.9439 22.536C10.9199 22.456 10.9039 22.376 10.8799 22.304C10.8799 22.28 10.8639 22.256 10.8639 22.24C10.8559 22.2 10.8479 22.16 10.8319 22.12C10.8319 22.096 10.8159 22.064 10.8159 22.04C10.8079 22 10.7999 21.96 10.7919 21.92C10.7919 21.888 10.7759 21.864 10.7759 21.832C10.0879 18.712 10.6399 15.416 13.2879 12.768C15.4159 10.64 17.9519 9.864 20.4799 9.984C20.7359 11.64 21.3119 13.24 22.0719 14.696C19.8799 14.032 17.8559 14.44 16.4079 15.888L16.3119 15.984H16.2879ZM9.08792 21.336C9.34392 22.992 9.91992 24.592 10.6799 26.048C8.48792 25.384 6.47992 25.784 5.03992 27.224L1.91992 24.104C4.03992 21.984 6.56792 21.216 9.07992 21.336H9.08792ZM27.7599 4.512C25.7519 6.52 25.7519 9.60801 27.7919 12.744C27.8639 12.856 27.9359 12.968 28.0159 13.08C28.0559 13.136 28.0959 13.2 28.1359 13.256C28.1519 13.272 28.1599 13.288 28.1679 13.312C28.1919 13.352 28.2239 13.392 28.2479 13.44C28.2639 13.464 28.2719 13.48 28.2879 13.504C28.3199 13.552 28.3439 13.592 28.3759 13.64C28.3839 13.656 28.3919 13.672 28.4079 13.688C28.4479 13.744 28.4799 13.808 28.5199 13.864C28.5279 13.88 28.5359 13.896 28.5519 13.912C28.5839 13.96 28.6079 14.008 28.6399 14.056C28.6479 14.072 28.6639 14.096 28.6719 14.112C28.7039 14.16 28.7279 14.208 28.7599 14.256C28.7679 14.272 28.7759 14.288 28.7839 14.304C28.8559 14.432 28.9279 14.56 28.9919 14.688C29.0079 14.712 29.0159 14.736 29.0319 14.76C29.0559 14.8 29.0719 14.84 29.0959 14.888C29.1039 14.912 29.1199 14.936 29.1279 14.952C29.1519 15 29.1759 15.048 29.1999 15.096C29.1999 15.112 29.2159 15.128 29.2239 15.144C29.2559 15.208 29.2799 15.264 29.3119 15.328C29.3279 15.36 29.3359 15.384 29.3519 15.416C29.3679 15.456 29.3839 15.488 29.3999 15.528C29.4159 15.56 29.4239 15.584 29.4399 15.616C29.4559 15.656 29.4719 15.696 29.4959 15.736C29.5119 15.76 29.5199 15.792 29.5359 15.816C29.5599 15.872 29.5839 15.92 29.5999 15.976C29.6079 16 29.6239 16.032 29.6319 16.056C29.6479 16.104 29.6719 16.152 29.6879 16.192C29.7039 16.224 29.7119 16.256 29.7279 16.288C29.7439 16.32 29.7519 16.36 29.7679 16.392C29.7839 16.424 29.7919 16.464 29.8079 16.496C29.8159 16.528 29.8319 16.56 29.8399 16.592C29.8559 16.624 29.8639 16.664 29.8799 16.696C29.9039 16.76 29.9199 16.816 29.9439 16.88C29.9599 16.92 29.9679 16.952 29.9759 16.992C29.9839 17.024 29.9919 17.048 30.0079 17.08C30.0239 17.12 30.0319 17.16 30.0479 17.2C30.0559 17.232 30.0639 17.264 30.0799 17.296C30.0879 17.328 30.1039 17.368 30.1119 17.4C30.1199 17.432 30.1279 17.464 30.1359 17.496C30.1519 17.56 30.1759 17.624 30.1919 17.696C30.1999 17.728 30.2079 17.76 30.2159 17.792C30.2239 17.84 30.2399 17.88 30.2479 17.928C30.2479 17.944 30.2479 17.96 30.2559 17.976C30.2639 18.024 30.2799 18.072 30.2879 18.12C30.2879 18.144 30.2959 18.168 30.3039 18.184C30.9919 21.312 30.4399 24.616 27.7759 27.28L27.6799 27.376C25.5839 29.416 23.0959 30.168 20.6159 30.048C20.3599 28.392 19.7839 26.792 19.0239 25.336C21.1839 25.984 23.1599 25.608 24.5999 24.224L24.6639 24.16C26.6719 22.152 26.6719 19.064 24.6319 15.92C24.5599 15.808 24.4879 15.704 24.4159 15.592C24.3759 15.536 24.3359 15.472 24.2959 15.408C24.2879 15.392 24.2799 15.376 24.2639 15.36C24.2319 15.312 24.1999 15.264 24.1679 15.216C24.1599 15.2 24.1439 15.184 24.1359 15.16C24.1039 15.112 24.0719 15.064 24.0479 15.016C24.0399 15 24.0319 14.992 24.0239 14.976C23.9839 14.912 23.9439 14.856 23.9119 14.792C23.9119 14.776 23.8959 14.768 23.8879 14.752C23.8559 14.704 23.8319 14.656 23.7999 14.6C23.7919 14.584 23.7759 14.56 23.7679 14.544C23.7359 14.496 23.7119 14.448 23.6799 14.392C23.6799 14.376 23.6639 14.368 23.6559 14.352C23.5839 14.224 23.5119 14.096 23.4399 13.96C23.4319 13.944 23.4239 13.92 23.4079 13.904C23.3839 13.856 23.3599 13.808 23.3359 13.76C23.3279 13.744 23.3199 13.72 23.3039 13.704C23.2799 13.648 23.2479 13.592 23.2239 13.536C23.2239 13.528 23.2159 13.512 23.2079 13.504C23.1759 13.44 23.1519 13.384 23.1199 13.32C23.1039 13.288 23.0879 13.248 23.0719 13.216C23.0559 13.184 23.0399 13.152 23.0239 13.12C23.0079 13.088 22.9999 13.056 22.9839 13.024C22.9679 12.984 22.9519 12.952 22.9359 12.912C22.9199 12.88 22.9119 12.856 22.8959 12.824C22.8799 12.776 22.8559 12.736 22.8399 12.688C22.8239 12.648 22.8079 12.6 22.7839 12.56C22.7679 12.52 22.7519 12.48 22.7359 12.432C22.7279 12.408 22.7119 12.376 22.7039 12.352C22.6879 12.312 22.6719 12.272 22.6559 12.232C22.6479 12.2 22.6319 12.176 22.6239 12.144C22.6079 12.104 22.5999 12.072 22.5839 12.032C22.5359 11.904 22.4959 11.776 22.4559 11.648C22.4479 11.616 22.4319 11.584 22.4239 11.552C22.4079 11.512 22.3999 11.472 22.3839 11.432C22.3839 11.416 22.3759 11.392 22.3679 11.376C22.3279 11.232 22.2799 11.08 22.2479 10.928C22.2479 10.904 22.2319 10.88 22.2319 10.856C22.2239 10.816 22.2159 10.776 22.1999 10.736C22.1999 10.712 22.1839 10.68 22.1839 10.656C22.1759 10.616 22.1679 10.568 22.1519 10.528C22.1519 10.512 22.1439 10.488 22.1359 10.472C21.4479 7.344 21.9999 4.03201 24.6639 1.36801L27.7839 4.488L27.7599 4.512ZM39.1439 15.888C37.0159 18.016 34.4799 18.792 31.9519 18.672C31.6959 17.016 31.1199 15.416 30.3599 13.96C32.5519 14.624 34.5759 14.216 36.0239 12.768L39.1439 15.888Z" fill="white"/>
<path d="M132.408 10.72L125.528 18.824L118.592 10.72H115.056V29.304H118.592V15.856L125.488 24.144L127.808 21.48L127.792 21.464L132.408 15.8V29.304H135.936V10.72H132.408Z" fill="white"/>
<path d="M158.832 14.4V35.376H162.368V29.28H170.464C172.464 29.28 174.08 27.656 174.08 25.664V18.032C174.08 16.032 172.456 14.416 170.464 14.416H158.832V14.4ZM170.544 26.112H162.36V17.568H170.544V26.112Z" fill="white"/>
<path d="M139.936 14.4V17.56H151.656V20.128H139.928V25.8C139.928 27.736 141.496 29.296 143.424 29.296H155.192V18.072C155.192 16.04 153.544 14.392 151.512 14.392H139.944L139.936 14.4ZM151.656 26.08H143.104V23.008H151.656V26.08Z" fill="white"/>
<path d="M72.024 14.256V10.72H58.16H54.632V14.256V18.24V21.776V25.768V29.304H58.16H71.848V25.768H58.16V21.776H69.264V18.24H58.16V14.256H72.024Z" fill="white"/>
<path d="M89.944 14.432L84.216 24.976L78.488 14.432H74.512L82.224 28.64L82.584 29.304H85.848L93.928 14.432H89.944Z" fill="white"/>
<path d="M107.48 14.232H99.7279C97.6079 14.232 95.8879 15.952 95.8879 18.072V25.448C95.8879 27.568 97.6079 29.288 99.7279 29.288H107.48C109.6 29.288 111.32 27.568 111.32 25.448V18.072C111.32 15.952 109.6 14.232 107.48 14.232ZM107.88 25.936H99.3279V17.592H107.88V25.936Z" fill="white"/>
</g>
</svg>
