<svg width="237" height="85" viewBox="0 0 237 85" fill="none" xmlns="http://www.w3.org/2000/svg">
<g clip-path="url(#clip0_130_374)">
<path d="M19.752 20.0722C17.1442 22.8134 17.1875 26.982 19.9521 31.2305C20.0488 31.3806 20.1522 31.534 20.2589 31.684C20.3156 31.7674 20.3723 31.8474 20.4256 31.9308C20.4423 31.9575 20.459 31.9808 20.4757 32.0108C20.5123 32.0642 20.5457 32.1176 20.579 32.1709C20.6024 32.2043 20.6257 32.241 20.6491 32.2743C20.6924 32.3443 20.7358 32.411 20.7791 32.4777C20.7858 32.4877 20.7925 32.4977 20.7991 32.5077C20.8525 32.5944 20.9059 32.6778 20.9592 32.7645C20.9725 32.7879 20.9859 32.8079 20.9992 32.8312C21.0392 32.8979 21.0793 32.9613 21.1193 33.028C21.1393 33.058 21.156 33.0913 21.1726 33.1213C21.2027 33.1714 21.2327 33.2214 21.2627 33.2747C21.2827 33.3114 21.3027 33.3448 21.3227 33.3815C21.3561 33.4415 21.3894 33.4948 21.4194 33.5549C21.4494 33.6116 21.4828 33.6682 21.5128 33.7249C21.5428 33.7783 21.5728 33.835 21.6028 33.8917C21.6195 33.9217 21.6328 33.9517 21.6495 33.9817C21.6795 34.0417 21.7129 34.1051 21.7429 34.1651C21.7596 34.1985 21.7762 34.2318 21.7929 34.2652C21.8229 34.3285 21.8563 34.3919 21.8863 34.4553C21.8996 34.4786 21.9096 34.5019 21.9196 34.5286C21.963 34.6153 22.0063 34.7054 22.0464 34.7954C22.0597 34.8254 22.0764 34.8588 22.0897 34.8888C22.1164 34.9488 22.1431 35.0022 22.1697 35.0622C22.1864 35.0989 22.2031 35.1389 22.2198 35.1756C22.2464 35.2323 22.2698 35.289 22.2965 35.3457C22.3098 35.379 22.3265 35.4124 22.3398 35.4457C22.4165 35.6258 22.4899 35.8025 22.5599 35.9826C22.5766 36.0193 22.5899 36.0593 22.6033 36.0927C22.6266 36.1527 22.65 36.2127 22.6733 36.2727C22.6866 36.3094 22.7 36.3461 22.7133 36.3794C22.7333 36.4295 22.75 36.4828 22.7667 36.5328C22.7833 36.5795 22.8 36.6262 22.8167 36.6729C22.8467 36.7563 22.8767 36.8397 22.9034 36.923C22.9167 36.9597 22.9267 36.9997 22.9401 37.0364C22.9568 37.0898 22.9768 37.1465 22.9934 37.2031C23.0068 37.2432 23.0201 37.2865 23.0335 37.3299C23.0501 37.3832 23.0668 37.4399 23.0835 37.4933C23.0968 37.5366 23.1102 37.58 23.1202 37.6233C23.1368 37.6867 23.1568 37.7501 23.1735 37.8101C23.1835 37.8368 23.1902 37.8668 23.1969 37.8935C23.2202 37.9835 23.2436 38.0769 23.2702 38.1669C23.2802 38.2036 23.2869 38.2403 23.2969 38.2736C23.3103 38.3336 23.3269 38.3903 23.3403 38.4504C23.3503 38.4937 23.3603 38.5404 23.3703 38.5871C23.3836 38.6404 23.3936 38.6905 23.4036 38.7438C23.4136 38.7838 23.4203 38.8239 23.4303 38.8639C23.447 38.9439 23.4637 39.0206 23.477 39.104C24.2907 43.2725 23.477 47.6444 19.9388 51.1827L15.6502 46.8941C18.3914 44.1529 18.3914 39.9143 15.5735 35.5891C15.4768 35.4424 15.3767 35.2923 15.2734 35.1456C15.2167 35.0655 15.1633 34.9855 15.1066 34.9021C15.0866 34.8721 15.0666 34.8421 15.0466 34.8121C15.0132 34.7654 14.9799 34.7154 14.9499 34.6654C14.9232 34.6287 14.8999 34.5887 14.8765 34.552C14.8432 34.5019 14.8132 34.4519 14.7831 34.4019C14.7631 34.3686 14.7398 34.3352 14.7198 34.3019C14.6698 34.2218 14.6197 34.1451 14.5731 34.0651C14.553 34.0317 14.533 33.9984 14.513 33.9684C14.483 33.9217 14.453 33.8717 14.4263 33.8216C14.403 33.7816 14.3796 33.7383 14.353 33.6983C14.3229 33.6516 14.2963 33.6016 14.2696 33.5515C14.2496 33.5182 14.2296 33.4815 14.2096 33.4482C14.1695 33.3781 14.1329 33.3114 14.0962 33.2414C14.0795 33.2147 14.0662 33.1847 14.0495 33.158C14.0128 33.088 13.9728 33.0146 13.9361 32.9446C13.9161 32.9046 13.8961 32.8646 13.8727 32.8245C13.8494 32.7779 13.8261 32.7312 13.7994 32.6845C13.776 32.6411 13.756 32.5978 13.7327 32.5544L13.666 32.421C13.6426 32.3777 13.6226 32.331 13.5993 32.2843C13.5593 32.2043 13.5226 32.1242 13.4859 32.0442C13.4692 32.0075 13.4526 31.9708 13.4359 31.9375C13.4125 31.8841 13.3892 31.8308 13.3625 31.7807C13.3425 31.7374 13.3225 31.694 13.3025 31.6474C13.2825 31.6007 13.2591 31.5506 13.2391 31.504C13.2225 31.4639 13.2058 31.4239 13.1891 31.3839C13.1658 31.3239 13.1424 31.2705 13.1157 31.2105C13.0857 31.1405 13.0591 31.0704 13.0324 31.0004C13.0124 30.9537 12.9957 30.9037 12.9757 30.857C12.9557 30.8103 12.939 30.7636 12.9223 30.7169C12.9056 30.6736 12.889 30.6302 12.8756 30.5902C12.8556 30.5402 12.839 30.4868 12.8189 30.4368C12.8023 30.3935 12.7889 30.3501 12.7723 30.3068C12.7556 30.2601 12.7389 30.2134 12.7222 30.1667C12.7056 30.12 12.6889 30.07 12.6722 30.02C12.6389 29.9266 12.6089 29.8299 12.5788 29.7365C12.5688 29.7065 12.5588 29.6765 12.5488 29.6465C12.5322 29.5931 12.5155 29.5398 12.4988 29.4864C12.4855 29.4397 12.4688 29.393 12.4554 29.3463C12.4421 29.2996 12.4288 29.253 12.4154 29.2063C12.4054 29.1696 12.3954 29.1296 12.3854 29.0962C12.3554 28.9895 12.3254 28.8828 12.2987 28.7761C12.2887 28.7461 12.282 28.7127 12.2754 28.6827C12.262 28.6294 12.2487 28.5727 12.2354 28.516C12.2253 28.4793 12.2153 28.4393 12.2087 28.4059C12.1953 28.3526 12.182 28.2992 12.172 28.2425C12.162 28.2025 12.1553 28.1658 12.1453 28.1258C11.2049 23.8406 11.9552 19.3052 15.6002 15.6569C18.5248 12.7323 22.013 11.6618 25.4879 11.8286C25.8447 14.1029 26.6284 16.3106 27.6789 18.3048C24.6608 17.3944 21.883 17.948 19.8887 19.9422L19.7587 20.0756H19.752V20.0722ZM9.85096 27.4322C10.2078 29.7098 10.9948 31.9141 12.0453 33.9117C9.0306 33.0013 6.26938 33.5482 4.2885 35.5291L-6.10352e-05 31.2438C2.91123 28.3326 6.38943 27.2688 9.85096 27.4322ZM35.5323 4.28858C32.7744 7.04647 32.7744 11.2917 35.5723 15.6103C35.6724 15.7637 35.7724 15.9137 35.8791 16.0671C35.9358 16.1505 35.9925 16.2305 36.0459 16.3139C36.0626 16.3372 36.0792 16.3606 36.0926 16.3873C36.1293 16.4473 36.1693 16.5007 36.206 16.5607C36.226 16.5907 36.2426 16.6207 36.2626 16.6474C36.3027 16.7107 36.3427 16.7741 36.3827 16.8375C36.396 16.8608 36.4094 16.8808 36.4261 16.9042C36.4761 16.9875 36.5294 17.0676 36.5795 17.1509C36.5928 17.1743 36.6061 17.1943 36.6195 17.2176C36.6595 17.2843 36.6995 17.3477 36.7362 17.4144C36.7495 17.4377 36.7662 17.4644 36.7795 17.4878C36.8196 17.5544 36.8562 17.6211 36.8963 17.6912C36.9096 17.7145 36.9196 17.7345 36.9329 17.7579C37.0297 17.9313 37.1264 18.108 37.2197 18.2848C37.2364 18.3181 37.2531 18.3481 37.2698 18.3815C37.2998 18.4415 37.3298 18.4949 37.3598 18.5549C37.3765 18.5849 37.3898 18.6183 37.4065 18.6483C37.4398 18.715 37.4732 18.785 37.5065 18.8517C37.5165 18.875 37.5299 18.8984 37.5399 18.9217C37.5799 19.0051 37.6199 19.0918 37.6633 19.1785C37.6833 19.2185 37.7 19.2585 37.7166 19.2986C37.74 19.3486 37.76 19.3986 37.7867 19.4486C37.8033 19.4886 37.8233 19.5287 37.84 19.5687C37.8634 19.622 37.8867 19.6787 37.9134 19.7354C37.9301 19.7721 37.9467 19.8121 37.9634 19.8488C37.9934 19.9222 38.0268 19.9955 38.0534 20.0689C38.0668 20.1056 38.0835 20.1423 38.0968 20.1756C38.1235 20.239 38.1468 20.3057 38.1735 20.369C38.1902 20.4124 38.2068 20.4591 38.2235 20.5058C38.2402 20.5524 38.2602 20.5991 38.2769 20.6492C38.2935 20.6958 38.3102 20.7425 38.3269 20.7892C38.3436 20.8326 38.3569 20.8759 38.3736 20.9193C38.3903 20.966 38.4069 21.016 38.4236 21.0627C38.4536 21.146 38.4803 21.2294 38.507 21.3128C38.5236 21.3628 38.5403 21.4128 38.5537 21.4628C38.567 21.5029 38.5803 21.5429 38.5937 21.5862C38.6104 21.6396 38.627 21.6929 38.6437 21.7463C38.657 21.7897 38.6704 21.833 38.6837 21.8764C38.6971 21.923 38.7137 21.9731 38.7271 22.0231C38.7404 22.0664 38.7504 22.1065 38.7638 22.1498C38.7904 22.2399 38.8138 22.3299 38.8371 22.4199C38.8505 22.4633 38.8605 22.51 38.8738 22.5567C38.8905 22.62 38.9038 22.6801 38.9172 22.7401C38.9238 22.7601 38.9272 22.7801 38.9338 22.8034C38.9505 22.8701 38.9672 22.9402 38.9805 23.0069C38.9872 23.0369 38.9939 23.0702 39.0005 23.1002C39.9443 27.3988 39.1873 31.9475 35.5257 35.6091L35.3889 35.7458C32.5077 38.5537 29.0861 39.5842 25.6746 39.4208C25.3178 37.1431 24.5308 34.9388 23.4803 32.9413C26.4483 33.8383 29.1728 33.3214 31.1437 31.4139L31.2371 31.3239C33.995 28.566 33.995 24.3141 31.1937 19.9989C31.097 19.8488 30.9937 19.6987 30.8903 19.5487C30.8336 19.4653 30.7769 19.3853 30.7202 19.2986C30.7069 19.2785 30.6935 19.2585 30.6802 19.2352C30.6368 19.1718 30.5935 19.1051 30.5501 19.0418C30.5334 19.0184 30.5201 18.9951 30.5034 18.9684C30.4601 18.9017 30.4201 18.8384 30.3767 18.7717C30.3634 18.7516 30.3534 18.735 30.34 18.7116C30.2867 18.6283 30.2367 18.5416 30.1833 18.4582C30.1733 18.4382 30.16 18.4215 30.1499 18.4048C30.1099 18.3348 30.0666 18.2681 30.0266 18.2014C30.0099 18.1781 29.9965 18.1514 29.9832 18.128C29.9432 18.058 29.9032 17.9913 29.8632 17.9213C29.8531 17.9013 29.8431 17.8846 29.8331 17.8679C29.7331 17.6912 29.6364 17.5111 29.5397 17.3344C29.5263 17.3077 29.513 17.281 29.4997 17.2543C29.4663 17.1876 29.433 17.1243 29.3996 17.0609C29.3863 17.0342 29.3729 17.0109 29.3596 16.9842C29.3229 16.9075 29.2829 16.8341 29.2462 16.7574C29.2395 16.7408 29.2295 16.7274 29.2229 16.7107C29.1828 16.6274 29.1428 16.544 29.1028 16.4573C29.0795 16.4106 29.0595 16.3639 29.0361 16.3172C29.0161 16.2739 28.9961 16.2272 28.9728 16.1805C28.9527 16.1372 28.9361 16.0938 28.9161 16.0538C28.8927 16.0038 28.8727 15.9537 28.8494 15.9004C28.8327 15.8604 28.816 15.8237 28.7993 15.7837C28.7727 15.7203 28.7493 15.6603 28.7226 15.6003C28.6993 15.5402 28.676 15.4835 28.6493 15.4235C28.6259 15.3635 28.6026 15.3101 28.5792 15.2501C28.5626 15.2134 28.5492 15.1734 28.5359 15.1367C28.5159 15.0834 28.4925 15.0267 28.4725 14.97C28.4559 14.93 28.4425 14.8899 28.4292 14.8499C28.4125 14.7999 28.3925 14.7499 28.3758 14.6999C28.3125 14.5231 28.2524 14.3497 28.1957 14.173C28.1824 14.1296 28.1657 14.0829 28.1524 14.0396C28.1357 13.9862 28.119 13.9295 28.1024 13.8728C28.0924 13.8461 28.0857 13.8195 28.079 13.7928C28.019 13.5894 27.9623 13.3859 27.909 13.1825C27.8989 13.1492 27.8923 13.1158 27.8823 13.0825C27.8689 13.0291 27.8556 12.9758 27.8423 12.9224C27.8323 12.8857 27.8222 12.8457 27.8156 12.809C27.8022 12.749 27.7889 12.6923 27.7756 12.6323C27.7689 12.6056 27.7622 12.5789 27.7589 12.5522C26.8118 8.25033 27.5655 3.69498 31.2304 0.0300293L35.519 4.31859L35.5323 4.28858ZM51.1826 19.9388C48.258 22.8635 44.7697 23.9339 41.2949 23.7672C40.938 21.4929 40.1544 19.2852 39.1039 17.291C42.1219 18.2014 44.8998 17.6478 46.894 15.6536L51.1826 19.9422V19.9388Z" fill="white"/>
<path d="M179.426 12.8291L169.972 23.974L160.431 12.8291H155.572V38.3837H160.431V19.8922L169.915 31.2939L173.1 27.629L173.08 27.6056L179.426 19.8189V38.3837H184.285V12.8291H179.426Z" fill="white"/>
<path d="M215.762 17.8914V46.7308H220.621V38.3437H231.756C234.504 38.3437 236.731 36.1161 236.731 33.3682V22.8702C236.731 20.1223 234.504 17.8947 231.756 17.8947H215.762V17.8914ZM231.876 33.9918H220.621V22.2399H231.876V33.9918Z" fill="white"/>
<path d="M189.784 17.8914V22.2399H205.894V25.7748H189.761V33.575C189.761 36.2328 191.915 38.3871 194.573 38.3871H210.753V22.9536C210.753 20.159 208.489 17.8947 205.694 17.8947H189.784V17.8914ZM205.894 33.9518H194.136V29.7266H205.894V33.9518Z" fill="white"/>
<path d="M96.4027 17.6879V12.8291H77.3376H72.4788V17.6879V23.1737V28.0325V33.5249V38.3837H77.3376H96.1559V33.5249H77.3376V28.0325H92.601V23.1737H77.3376V17.6879H96.4027Z" fill="white"/>
<path d="M121.04 17.9312L113.163 32.4342L105.287 17.9312H99.8141L110.429 37.4698L110.922 38.3835H115.404L126.513 17.9312H121.04Z" fill="white"/>
<path d="M145.154 17.6646H134.493C131.575 17.6646 129.21 20.0289 129.21 22.9469V33.0914C129.21 36.0093 131.575 38.3737 134.493 38.3737H145.154C148.072 38.3737 150.437 36.0093 150.437 33.0914V22.9469C150.437 20.0289 148.072 17.6646 145.154 17.6646ZM145.704 33.755H133.946V22.2833H145.704V33.755Z" fill="white"/>
</g>
<path d="M204.297 64.9858C203.478 64.9858 202.883 64.3656 202.883 63.5468C202.883 62.7528 203.478 62.1326 204.297 62.1326C205.116 62.1326 205.711 62.7528 205.711 63.5468C205.711 64.3656 205.116 64.9858 204.297 64.9858ZM203.18 79.1281V67.3429H205.413V79.1281H203.18Z" fill="#ACACAC"/>
<path d="M193.727 79.3762C190.476 79.3762 187.971 76.6966 187.971 73.2478C187.971 69.7991 190.476 67.0947 193.727 67.0947C195.389 67.0947 196.803 67.7894 197.647 68.9555V67.3428H199.905V79.128H197.647V77.5401C196.803 78.6815 195.414 79.3762 193.727 79.3762ZM194.099 77.2672C196.307 77.2672 197.796 75.6297 197.796 73.2478C197.796 70.8412 196.307 69.2037 194.074 69.2037C191.841 69.2037 190.278 70.866 190.278 73.223C190.278 75.5801 191.866 77.2672 194.099 77.2672Z" fill="#ACACAC"/>
<path d="M183.939 79.3762C182.996 79.3762 182.326 78.6567 182.326 77.7387C182.326 76.8207 182.996 76.126 183.939 76.126C184.882 76.126 185.552 76.8207 185.552 77.7387C185.552 78.6567 184.882 79.3762 183.939 79.3762Z" fill="#ACACAC"/>
<path d="M167.999 84.0654V67.3428H170.232V68.9804C171.1 67.8142 172.539 67.0947 174.201 67.0947C177.427 67.0947 179.908 69.7743 179.908 73.2478C179.908 76.6966 177.427 79.3762 174.201 79.3762C172.514 79.3762 171.1 78.6815 170.232 77.5153V84.0654H167.999ZM173.829 77.2672C176.062 77.2672 177.625 75.6049 177.625 73.223C177.625 70.866 176.062 69.2037 173.854 69.2037C171.621 69.2037 170.108 70.866 170.108 73.2478C170.108 75.6049 171.621 77.2672 173.829 77.2672Z" fill="#ACACAC"/>
<path d="M158.57 79.3762C155.32 79.3762 152.814 76.6966 152.814 73.2478C152.814 69.7991 155.32 67.0947 158.57 67.0947C160.232 67.0947 161.646 67.7894 162.49 68.9555V67.3428H164.748V79.128H162.49V77.5401C161.646 78.6815 160.257 79.3762 158.57 79.3762ZM158.942 77.2672C161.15 77.2672 162.639 75.6297 162.639 73.2478C162.639 70.8412 161.15 69.2037 158.917 69.2037C156.684 69.2037 155.121 70.866 155.121 73.223C155.121 75.5801 156.709 77.2672 158.942 77.2672Z" fill="#ACACAC"/>
<path d="M132.333 79.128V67.3428H134.566V68.7074C135.385 67.6902 136.65 67.0947 138.114 67.0947C139.801 67.0947 141.215 67.8887 141.984 69.2285C142.803 67.8887 144.292 67.0947 145.979 67.0947C148.51 67.0947 150.519 68.8067 150.519 71.5607V79.128H148.262V72.0073C148.262 70.2457 147.071 69.1788 145.458 69.1788C143.82 69.1788 142.53 70.2457 142.53 71.9825V79.128H140.297V72.0073C140.297 70.2457 139.106 69.1788 137.469 69.1788C135.856 69.1788 134.566 70.2457 134.566 71.9825V79.128H132.333Z" fill="#ACACAC"/>
<path d="M123.664 79.3762C120.215 79.3762 117.511 76.647 117.511 73.1982C117.511 69.7743 120.19 67.0947 123.664 67.0947C127.088 67.0947 129.817 69.7743 129.817 73.1982C129.817 76.6718 127.113 79.3762 123.664 79.3762ZM123.664 77.2176C125.897 77.2176 127.51 75.5305 127.51 73.1982C127.51 70.8908 125.872 69.2533 123.664 69.2533C121.431 69.2533 119.818 70.9156 119.818 73.1982C119.818 75.5305 121.431 77.2176 123.664 77.2176Z" fill="#ACACAC"/>
<path d="M110.088 79.128L104.679 67.3428H107.16L110.783 75.6545L114.43 67.3428H116.812L111.403 79.128H110.088Z" fill="#ACACAC"/>
<path d="M98.3942 79.3762C94.8463 79.3762 92.1667 76.7462 92.1667 73.223C92.1667 69.7743 94.8215 67.0947 98.2454 67.0947C101.471 67.0947 103.803 69.5262 103.803 72.8757C103.803 73.223 103.778 73.5952 103.679 74.0666H94.4493C94.7966 76.0267 96.2853 77.2672 98.3942 77.2672C99.7092 77.2672 100.875 76.8206 101.644 75.8778L103.084 77.3417C101.942 78.6566 100.255 79.3762 98.3942 79.3762ZM98.1958 69.154C96.2109 69.154 94.7966 70.345 94.4493 72.2058H101.62C101.372 70.2953 100.131 69.154 98.1958 69.154Z" fill="#ACACAC"/>
<path d="M88.1601 79.3762C87.2173 79.3762 86.5474 78.6567 86.5474 77.7387C86.5474 76.8207 87.2173 76.126 88.1601 76.126C89.1029 76.126 89.7728 76.8207 89.7728 77.7387C89.7728 78.6567 89.1029 79.3762 88.1601 79.3762Z" fill="#ACACAC"/>
<path d="M71.7899 79.128L67.1254 67.3428H69.4577L72.4598 75.5056L75.4371 67.3428H76.7273L79.7046 75.5056L82.7067 67.3428H85.039L80.3993 79.128H79.0843L76.0822 71.3125L73.0801 79.128H71.7899Z" fill="#ACACAC"/>
<path d="M53.7389 79.128L49.0745 67.3428H51.4067L54.4088 75.5056L57.3861 67.3428H58.6763L61.6536 75.5056L64.6558 67.3428H66.988L62.3483 79.128H61.0334L58.0312 71.3125L55.0291 79.128H53.7389Z" fill="#ACACAC"/>
<path d="M35.688 79.128L31.0236 67.3428H33.3558L36.3579 75.5056L39.3352 67.3428H40.6254L43.6027 75.5056L46.6049 67.3428H48.9371L44.2974 79.128H42.9825L39.9803 71.3125L36.9782 79.128H35.688Z" fill="#ACACAC"/>
<defs>
<clipPath id="clip0_130_374">
<rect width="236.735" height="51.186" fill="white"/>
</clipPath>
</defs>
</svg>
